<svg xmlns="http://www.w3.org/2000/svg" xmlns:xlink="http://www.w3.org/1999/xlink" width="146" height="44" viewBox="0 0 146 44">
    <defs>
        <path id="gvwdc80cpa" d="M1.93 1.068l22.4 12.4c.627.348.855 1.139.507 1.767-.118.214-.294.39-.508.508l-22.4 12.4c-.628.348-1.419.12-1.766-.508-.107-.193-.163-.41-.163-.63v-24.8c0-.717.582-1.3 1.3-1.3.22 0 .437.057.63.163z"/>
    </defs>
    <g fill="none" fill-rule="evenodd">
        <rect width="145" height="43" x=".5" y=".5" stroke="#A6A6A6" rx="6"/>
        <text fill="#FFF" font-family="Gilroy-Semibold, Gilroy" font-size="16" font-weight="500">
            <tspan x="44" y="33">Google Play</tspan>
        </text>
        <text fill="#FFF" font-family="Gilroy-Medium, Gilroy" font-size="9" font-weight="400">
            <tspan x="44" y="16">GET IT ON</tspan>
        </text>
        <g transform="translate(10 8)">
            <mask id="lfgirtjcob" fill="#fff">
                <use xlink:href="#gvwdc80cpa"/>
            </mask>
            <use fill="#D8D8D8" xlink:href="#gvwdc80cpa"/>
            <path fill="#63C3E2" d="M0 14.642V2.294C0 1.588.588 1 1.176 1s.823.118 1.176.353l22.697 12.465c.47.236.705.588.705.941s-.235.706-.705.941L2.352 28.166c-.235.117-.588.352-1.176.352S0 27.93 0 27.225V14.642z" mask="url(#lfgirtjcob)"/>
            <path fill="#369D6A" d="M14.7 14.76L.94 1h.236c.588 0 .823.118 1.176.353l16.7 9.173-4.352 4.233z" mask="url(#lfgirtjcob)"/>
            <path fill="#EB9D2D" d="M18.934 18.875L14.7 14.642l4.351-4.352 5.998 3.293c.47.235.705.588.705.941s-.235.706-.705.94l-6.115 3.411z" mask="url(#lfgirtjcob)"/>
            <path fill="#D93C4A" d="M1.058 28.283L14.7 14.642l4.234 4.233L2.352 27.93c-.353.236-.588.353-1.294.353.118 0 .118 0 0 0z" mask="url(#lfgirtjcob)"/>
        </g>
        <path fill="#FFF" d="M119.54 35.44L119.54 35.44 119.435 35.44 119.435 35.44 119.435 35.335 119.435 35.335 119.54 35.335 119.54 35.335 119.435 35.335 119.435 35.335 119.435 35.44 119.435 35.44zM119.54 35.44L119.54 35.44 119.54 35.335 119.54 35.335 119.54 35.335 119.54 35.335 119.54 35.335 119.54 35.335 119.54 35.335 119.54 35.335 119.54 35.44zM119.54 35.335L119.54 35.335 119.54 35.335 119.54 35.335 119.54 35.44 119.54 35.44 119.54 35.335zM119.54 35.44L119.54 35.44 119.54 35.335 119.54 35.335 119.54 35.335 119.54 35.335 119.54 35.335 119.54 35.335 119.54 35.335 119.54 35.335 119.54 35.44zM119.645 35.335L119.645 35.335 119.645 35.335 119.645 35.335 119.645 35.335 119.645 35.335 119.645 35.335 119.645 35.335 119.645 35.44 119.645 35.44zM119.645 35.44L119.645 35.44 119.645 35.335 119.645 35.335 119.645 35.44zM119.645 35.44c0-.105 0-.105 0 0 0-.105 0-.105 0 0 0-.105 0-.105 0 0 0-.105 0-.105 0 0zM119.75 35.44L119.75 35.335 119.75 35.335 119.75 35.335 119.75 35.335 119.75 35.335 119.75 35.44 119.75 35.44 119.75 35.335 119.75 35.335 119.75 35.44 119.75 35.44 119.75 35.335 119.75 35.335zM119.75 35.44c0-.105 0-.105 0 0 0-.105 0-.105 0 0 0-.105 0-.105 0 0 0-.105 0-.105 0 0 0-.105 0-.105 0 0 0-.105 0-.105 0 0 0-.105 0-.105 0 0 0-.105 0-.105 0 0zM119.855 35.335L119.75 35.335 119.75 35.335 119.855 35.335 119.855 35.44 119.855 35.44 119.855 35.335zM119.855 35.44L119.855 35.44 119.855 35.335 119.855 35.335 119.855 35.335 119.855 35.335 119.855 35.335 119.855 35.335 119.855 35.335 119.855 35.335 119.855 35.44z"/>
    </g>
</svg>
