<svg xmlns="http://www.w3.org/2000/svg"  width="146" height="44" viewBox="0 0 146 44">
    <g fill="none" fill-rule="evenodd">
        <defs>
            <style>
                @import url(//db.onlinewebfonts.com/c/040a78b437acd0433612f92e61d04a1b?family=Gilroy-Medium);
                @import url(//db.onlinewebfonts.com/c/000833a3a58fb083c44b9de42c2ff0a2?family=Gilroy+SemiBold);
            </style>
        </defs>
        <rect width="145" height="43" x=".5" y=".5" stroke="#A6A6A6" rx="6"/>
        <text fill="#FFF" font-family="Gilroy+SemiBold" font-size="16" font-weight="500">
            <tspan x="44" y="33">App Store</tspan>
        </text>
        <text fill="#FFF" font-family="Gilroy-Medium" font-size="9" font-weight="400">
            <tspan x="44" y="16">Download on the</tspan>
        </text>
        <g fill="#FFF" fill-rule="nonzero">
            <path d="M18.096 14.256c0-3.348 2.808-4.968 2.916-5.076-1.62-2.268-3.996-2.592-4.86-2.7-2.052-.216-4.104 1.188-5.076 1.188-1.08 0-2.7-1.188-4.428-1.188-2.268 0-4.32 1.296-5.508 3.348-2.376 4.104-.648 10.152 1.62 13.5 1.188 1.62 2.484 3.456 4.212 3.348 1.728-.108 2.376-1.08 4.428-1.08s2.592 1.08 4.428 1.08c1.836 0 3.024-1.62 4.104-3.24 1.296-1.836 1.836-3.672 1.836-3.78-.108-.108-3.672-1.404-3.672-5.4zM14.748 4.32c.864-1.188 1.512-2.7 1.404-4.32-1.296.108-3.024.864-3.888 2.052-.864.972-1.62 2.592-1.404 4.104 1.404.108 2.916-.756 3.888-1.836z" transform="translate(10 9)"/>
        </g>
        <path fill="#FFF" d="M119.54 35.44L119.54 35.44 119.435 35.44 119.435 35.44 119.435 35.335 119.435 35.335 119.54 35.335 119.54 35.335 119.435 35.335 119.435 35.335 119.435 35.44 119.435 35.44zM119.54 35.44L119.54 35.44 119.54 35.335 119.54 35.335 119.54 35.335 119.54 35.335 119.54 35.335 119.54 35.335 119.54 35.335 119.54 35.335 119.54 35.44zM119.54 35.335L119.54 35.335 119.54 35.335 119.54 35.335 119.54 35.44 119.54 35.44 119.54 35.335zM119.54 35.44L119.54 35.44 119.54 35.335 119.54 35.335 119.54 35.335 119.54 35.335 119.54 35.335 119.54 35.335 119.54 35.335 119.54 35.335 119.54 35.44zM119.645 35.335L119.645 35.335 119.645 35.335 119.645 35.335 119.645 35.335 119.645 35.335 119.645 35.335 119.645 35.335 119.645 35.44 119.645 35.44zM119.645 35.44L119.645 35.44 119.645 35.335 119.645 35.335 119.645 35.44zM119.645 35.44c0-.105 0-.105 0 0 0-.105 0-.105 0 0 0-.105 0-.105 0 0 0-.105 0-.105 0 0zM119.75 35.44L119.75 35.335 119.75 35.335 119.75 35.335 119.75 35.335 119.75 35.335 119.75 35.44 119.75 35.44 119.75 35.335 119.75 35.335 119.75 35.44 119.75 35.44 119.75 35.335 119.75 35.335zM119.75 35.44c0-.105 0-.105 0 0 0-.105 0-.105 0 0 0-.105 0-.105 0 0 0-.105 0-.105 0 0 0-.105 0-.105 0 0 0-.105 0-.105 0 0 0-.105 0-.105 0 0 0-.105 0-.105 0 0zM119.855 35.335L119.75 35.335 119.75 35.335 119.855 35.335 119.855 35.44 119.855 35.44 119.855 35.335zM119.855 35.44L119.855 35.44 119.855 35.335 119.855 35.335 119.855 35.335 119.855 35.335 119.855 35.335 119.855 35.335 119.855 35.335 119.855 35.335 119.855 35.44z"/>
    </g>
</svg>
