<svg xmlns="http://www.w3.org/2000/svg" width="20" height="20" viewBox="0 0 20 20">
    <g fill="none" fill-rule="evenodd" transform="translate(-5 -5)">
        <path fill="#FFF" fill-rule="nonzero" d="M23 10.657c-.595.281-1.229.468-1.89.558.68-.437 1.199-1.124 1.443-1.952-.634.407-1.334.694-2.08.855C19.871 9.428 19.013 9 18.077 9c-1.816 0-3.278 1.587-3.278 3.533 0 .28.022.55.076.806-2.727-.143-5.14-1.55-6.761-3.695-.283.529-.449 1.134-.449 1.786 0 1.223.585 2.307 1.457 2.935-.527-.01-1.044-.175-1.482-.435v.039c0 1.717 1.137 3.142 2.628 3.47-.267.08-.558.117-.86.117-.21 0-.422-.013-.621-.06.425 1.399 1.631 2.427 3.065 2.46-1.116.94-2.533 1.507-4.067 1.507-.269 0-.527-.013-.785-.048C8.453 22.424 10.175 23 12.032 23c6.036 0 9.336-5.385 9.336-10.052 0-.156-.005-.307-.012-.457.651-.497 1.198-1.119 1.644-1.834z"/>
        <rect width="29" height="29" x=".5" y=".5" stroke="#A6A6A6" rx="6"/>
    </g>
</svg>
