<svg xmlns="http://www.w3.org/2000/svg" width="20" height="20" viewBox="0 0 20 20">
    <path fill="#FFF" d="M13.699 2.003L11.779 2C9.625 2 8.232 3.449 8.232 5.692v1.702h-1.93C6.136 7.394 6 7.53 6 7.7v2.466c0 .169.135.305.302.305H8.23v6.223c0 .17.135.306.302.306h2.517c.167 0 .302-.137.302-.306v-6.223h2.255c.167 0 .302-.136.302-.305L13.91 7.7c0-.082-.032-.16-.088-.217-.057-.057-.134-.09-.214-.09h-2.256V5.952c0-.694.163-1.046 1.054-1.046h1.292c.167 0 .302-.137.302-.306v-2.29c0-.169-.135-.306-.301-.306z"/>
</svg>
