<svg xmlns="http://www.w3.org/2000/svg" width="168" height="30" viewBox="0 0 168 30">
    <g fill="none">
        <path fill="#FFF" d="M9.92 23.463c.178-.535.772-.861 1.307-.683l10.662 3.475c.594.178 1.188-.238 1.188-.861l.119-20.315c0-.475-.565-.743-.921-.446l-8.435 6.802c-.445.356-1.099.297-1.455-.149-.356-.445-.297-1.099.148-1.455L24.383.327c.387-.297.921-.03.921.445l-.178 27.562c0 .624-.594 1.04-1.188.861L10.544 24.83c-.505-.237-.802-.831-.624-1.366z"/>
        <path fill="#E0B72C" d="M.564 15.593L19.602.297c.446-.356 1.099-.297 1.455.149.357.445.297 1.098-.148 1.455L4.782 14.85c-.832.653-.594 1.99.386 2.346l15.384 5.406c.535.178.832.802.624 1.336-.178.535-.802.832-1.336.624L.89 17.909c-.95-.327-1.158-1.663-.327-2.316z"/>
        <path fill="#FFF" d="M42.323 4.247c1.306 0 2.435.178 3.385.564.95.387 1.723.891 2.317 1.515.594.624 1.07 1.366 1.336 2.228.297.86.416 1.722.416 2.643 0 .742-.089 1.455-.267 2.198-.178.713-.475 1.396-.861 2.02-.386.623-.891 1.187-1.515 1.663-.624.475-1.366.86-2.257 1.098l5.405 9.297h-4.514l-5.287-8.97h-6.059c-.386 0-.594.208-.594.594v8.405H29.76v-9.177c0-1.307.297-2.257.862-2.822.564-.564 1.514-.86 2.792-.86h9.058c.564 0 1.07-.09 1.485-.268.416-.178.743-.416 1.01-.713s.445-.653.564-1.04c.119-.386.178-.801.178-1.217 0-.832-.267-1.545-.772-2.139-.505-.594-1.336-.92-2.465-.92H29.73V4.247h12.593zM64.746 9.296c2.168 0 3.713.475 4.693 1.455.95.98 1.455 2.347 1.455 4.099 0 1.663-.475 2.97-1.426 3.861-.95.92-2.524 1.366-4.752 1.366h-8.642v1.307c0 .743.208 1.337.623 1.812.416.475 1.129.713 2.139.713h11.108v3.534H58.836c-1.159 0-2.109-.149-2.91-.446-.803-.297-1.456-.712-1.961-1.247-.505-.535-.891-1.158-1.129-1.9-.237-.714-.356-1.516-.356-2.407v-6.147c0-.862.119-1.634.356-2.376.238-.743.594-1.367 1.129-1.901.505-.535 1.158-.95 1.96-1.248.802-.297 1.752-.445 2.91-.445h5.911v-.03zm-8.672 7.96h8.524c.98 0 1.692-.208 2.079-.594.415-.386.594-.921.594-1.574 0-.683-.208-1.248-.624-1.664-.416-.415-1.07-.623-1.96-.623h-5.851c-1.01 0-1.723.237-2.139.713-.415.475-.623 1.069-.623 1.782v1.96zM96.584 9.296c3.09 0 5.406.683 6.92 2.08 1.515 1.395 2.258 3.355 2.258 5.88v10.217h-3.683V17.256c0-1.456-.416-2.554-1.277-3.297-.861-.742-2.257-1.129-4.188-1.129h-4.247v14.672h-3.683V12.801h-9.236c-.297 0-.446.178-.446.505v14.137h-3.653V12.118c0-1.07.208-1.812.594-2.228.386-.416 1.04-.594 1.96-.594h18.681zM114.553 2.435v4.248h-3.683V2.435h3.683zm-.03 6.861v18.177h-3.653V9.296h3.653zM120.404 9.296V4.99h3.683v4.306h5.019v3.505h-5.02v8.613c0 1.04.179 1.752.565 2.138.386.386 1.01.594 1.871.594h2.525v3.327h-3.267c-.95 0-1.753-.09-2.436-.297-.683-.208-1.247-.565-1.663-1.04-.446-.475-.743-1.129-.95-1.93-.208-.802-.297-1.812-.297-3V12.8h-2.466V9.296h2.436z"/>
        <path fill="#E0B72C" d="M133.888 9.296V4.99h3.682v4.306h5.02v3.505h-5.02v8.613c0 1.04.179 1.752.565 2.138.386.386 1.01.594 1.87.594h2.525v3.327h-3.267c-.95 0-1.752-.09-2.435-.297-.683-.208-1.247-.565-1.663-1.04-.446-.475-.743-1.129-.95-1.93-.209-.802-.298-1.812-.298-3V12.8h-2.465V9.296h2.436zM148.738 9.296l6.058 14.583c.149.356.446.564.891.564.476 0 .802-.178.95-.564l6.297-14.583h3.92l-7.009 16.216c-.386.862-.92 1.485-1.603 1.842-.683.356-1.545.534-2.555.534-1.069 0-1.93-.178-2.583-.564-.684-.356-1.188-.98-1.545-1.812l-6.682-16.216h3.86z"/>
    </g>
</svg>
